<?xml version="1.0" encoding="UTF-8" standalone="no"?>
<!-- Uploaded to: SVG Repo, www.svgrepo.com, Generator: SVG Repo Mixer Tools -->

<svg
   fill="#000000"
   height="1157.7996"
   width="1199.9178"
   version="1.1"
   id="Capa_1"
   viewBox="0 0 460.93044 444.75133"
   xml:space="preserve"
   sodipodi:docname="no-photos.svg"
   inkscape:version="1.4.2 (f4327f4, 2025-05-13)"
   xmlns:inkscape="http://www.inkscape.org/namespaces/inkscape"
   xmlns:sodipodi="http://sodipodi.sourceforge.net/DTD/sodipodi-0.dtd"
   xmlns="http://www.w3.org/2000/svg"
   xmlns:svg="http://www.w3.org/2000/svg"><defs
   id="defs1" /><sodipodi:namedview
   id="namedview1"
   pagecolor="#ffffff"
   bordercolor="#000000"
   borderopacity="0.25"
   inkscape:showpageshadow="2"
   inkscape:pageopacity="0.0"
   inkscape:pagecheckerboard="0"
   inkscape:deskcolor="#d1d1d1"
   inkscape:zoom="0.78400464"
   inkscape:cx="459.18095"
   inkscape:cy="945.14746"
   inkscape:window-width="3840"
   inkscape:window-height="2036"
   inkscape:window-x="3348"
   inkscape:window-y="-12"
   inkscape:window-maximized="1"
   inkscape:current-layer="Capa_1" />
<g
   id="_x31_1-DSLR_Camera"
   transform="translate(76.61102,58.972273)">
	<path
   d="M 284.909,66.146 H 203.564 L 187.138,38.551 C 185.531,35.853 182.624,34.2 179.484,34.2 h -51.662 c -3.14,0 -6.048,1.653 -7.654,4.351 L 103.742,66.146 H 77.049 v -6.082 c 0,-4.919 -3.988,-8.907 -8.907,-8.907 H 35.185 c -4.92,0 -8.907,3.988 -8.907,8.907 v 6.082 h -3.88 C 10.027,66.146 0,76.174 0,88.543 v 162.166 c 0,12.37 10.027,22.398 22.397,22.398 h 262.512 c 12.37,0 22.398,-10.028 22.398,-22.398 V 88.543 C 307.308,76.174 297.279,66.146 284.909,66.146 Z M 153.653,233.379 c -35.21,0 -63.753,-28.543 -63.753,-63.754 0,-35.209 28.543,-63.753 63.753,-63.753 35.21,0 63.753,28.544 63.753,63.753 0,35.211 -28.543,63.754 -63.753,63.754 z M 270.935,112.322 h -27.91 c -4.919,0 -8.907,-3.988 -8.907,-8.908 0,-4.92 3.988,-8.908 8.907,-8.908 h 27.91 c 4.921,0 8.908,3.988 8.908,8.908 0,4.92 -3.988,8.908 -8.908,8.908 z"
   id="path1" />
	<circle
   cx="153.653"
   cy="169.625"
   r="44.537998"
   id="circle1" />
</g>
<path
   style="fill:none;stroke:#d5d5d5;stroke-width:33.2997;stroke-dasharray:none;stroke-opacity:1"
   id="path2-8"
   sodipodi:type="arc"
   sodipodi:cx="235.76027"
   sodipodi:cy="226.57533"
   sodipodi:rx="208.52034"
   sodipodi:ry="200.11131"
   sodipodi:start="0"
   sodipodi:end="6.282443"
   sodipodi:arc-type="arc"
   d="M 444.28061,226.57533 A 208.52034,200.11131 0 0 1 235.79897,426.68664 208.52034,200.11131 0 0 1 27.239944,226.6496 208.52034,200.11131 0 0 1 235.64418,26.464051 208.52034,200.11131 0 0 1 444.28055,226.42679"
   sodipodi:open="true" /><path
   style="fill:none;stroke:#ff0000;stroke-width:34.1221;stroke-dasharray:none;stroke-opacity:1"
   id="path2"
   sodipodi:type="arc"
   sodipodi:cx="230.4601"
   sodipodi:cy="222.37567"
   sodipodi:rx="213.39905"
   sodipodi:ry="205.31462"
   sodipodi:start="0"
   sodipodi:end="6.282443"
   sodipodi:arc-type="arc"
   d="M 443.85915,222.37567 A 213.39905,205.31462 0 0 1 230.4997,427.69029 213.39905,205.31462 0 0 1 17.061065,222.45187 213.39905,205.31462 0 0 1 230.34129,17.061082 213.39905,205.31462 0 0 1 443.85909,222.22326"
   sodipodi:open="true" /><path
   style="fill:none;stroke:#ff0000;stroke-width:34.1221;stroke-dasharray:none;stroke-opacity:1"
   d="M 75.815065,359.87506 386.21369,75.798644"
   id="path3"
   sodipodi:nodetypes="cc" /></svg>
