<?xml version="1.0" encoding="UTF-8" standalone="no"?>
<svg
   id="Layer_2"
   data-name="Layer 2"
   viewBox="0 0 995.39 896.8"
   version="1.1"
   sodipodi:docname="pybeach2025-fullcolor.svg"
   inkscape:version="1.4.2 (f4327f4, 2025-05-13)"
   xmlns:inkscape="http://www.inkscape.org/namespaces/inkscape"
   xmlns:sodipodi="http://sodipodi.sourceforge.net/DTD/sodipodi-0.dtd"
   xmlns="http://www.w3.org/2000/svg"
   xmlns:svg="http://www.w3.org/2000/svg">
  <sodipodi:namedview
     id="namedview32"
     pagecolor="#ffffff"
     bordercolor="#000000"
     borderopacity="0.25"
     inkscape:showpageshadow="2"
     inkscape:pageopacity="0.0"
     inkscape:pagecheckerboard="0"
     inkscape:deskcolor="#d1d1d1"
     inkscape:zoom="1.9781445"
     inkscape:cx="497.94137"
     inkscape:cy="448.39999"
     inkscape:window-width="3840"
     inkscape:window-height="2036"
     inkscape:window-x="3348"
     inkscape:window-y="-12"
     inkscape:window-maximized="1"
     inkscape:current-layer="Layer_2" />
  <defs
     id="defs1">
    <style
       id="style1">
      .cls-1 {
        fill: #fecc33;
      }

      .cls-2 {
        fill: #3790c1;
      }

      .cls-3 {
        fill: #fd8e33;
      }

      .cls-4 {
        fill: #013976;
      }
    </style>
  </defs>
  <path
     class="cls-1"
     d="M929.38,490.55c16.01,7.25,39.16,42.86,44.99,59.41,37.46,106.27-50.85,169.07-137.65,202.08-29.26,11.13-63.89,24.23-94.16,31.22-91.76,21.18-216.37,36.71-304.38-3.82-7.19-3.31-20.24-12.76-26.3-14.16-7.86-6.47-17.28-11.34-24.98-17.98-5.86-5.06-16.38-17.68-20.98-23.98-17.12-23.43-20.76-46.37-20.98-74.93-.04-4.54.2-10.58,1-14.99,4.53-25.01,18.55-51.17,35.97-68.93,2.92-2.98,6.8-6.21,9.99-8.99,15.58-13.56,41.13-32.43,60.94-37.96,8.65-2.42,19.94-5.47,28.3-1.83,10.13,4.41,16.72,10.97,19.19,21.78,5.83,25.55-15.4,58.4,9.96,77.95,4.75,3.66,10.3,5.44,15.48,7.99,14.53,7.17,21.63,10.09,38.42,11.03,84.29,4.7,169.49-12.73,241.99-55.8,9.43-5.6,23.85-14.06,28.29-24.16,10.38-8.84,17.44-20.95,26-31.44,18.29-22.4,36.14-47.34,68.9-32.5ZM927.1,537.72c-4.59,1.34-9.84,7.99-11.48,12.5-5.69,15.61-.94,42.55,3.24,58.25,4.19,15.72,22.98,21.35,35.04,10,11.18-10.51,10.54-32.94,8.13-47.18-2.72-16.07-15.01-39.39-34.94-33.57ZM387.66,591.67c-12.84,1.9-24.69,29-25.5,40.55-.87,12.37,10.35,22.98,23,16.93,10.88-5.2,21.71-33.85,18.67-45.15-2.04-7.6-7.72-13.58-16.17-12.33ZM893.16,609.68c-8.56.55-16.61,12.13-16.81,20.23-.18,7.33,6.35,21.97,14.58,22.54,20.89,1.43,23.48-23.2,14.3-37.36-2.79-4.31-6.97-5.74-12.08-5.41Z"
     id="path1" />
  <path
     class="cls-2"
     d="M629.67,222.81c1.37-.34,4.15-.96,5.87-1.37,15.35-3.61,30.07-6.04,46.07-4.62-7.71,22.28-13.26,46.63.59,67.84,10.97,16.79,33.9,20.19,52.14,14.35,11.66-3.73,32.71-18.2,26.06-32.61-2.44-5.28-17.59-22.38-22.33-27.63-4.65-5.14-10.27-9.44-14.5-14.97,67.33,34,107.43,89.16,120.88,163.84,3.62,20.1,5.45,53.61,5,73.93-.46,20.74-6.86,74.44-14.99,92.91-4.44,10.1-18.85,18.56-28.29,24.16-72.5,43.07-157.7,60.5-241.99,55.8-16.79-.94-23.89-3.86-38.42-11.03-35.67-29.77-.54-76.25-9.44-112.94-.97-3.98-5.24-12.54-9.26-13.73-6.08-1.8-28.21,7.71-34.93,10.62-6.26,2.71-14.08,6.06-19.31,10.16-19.81,5.53-45.36,24.4-60.94,37.96-7.62-4.14-13.59-9.18-18.98-15.98-13-16.43-21.6-45.59-8.83-64.27,6.27-9.17,20.05-14.64,27.64-3.99,8.98,12.59,11.62,29.2,32.59,28.31,20.12-.85,20.11-20.75,27.7-34.3,29.18-52.08,121.34-62.29,159.67-16.66,3.88,4.62,8.68,13.36,10.99,18.98,9.42,22.94,4.2,34.19,5.96,56.48s16.36,25.91,36.48,24.43c52.48-3.88,62.34-46.37,56.46-90.89-1.23-9.28-2.79-16.08-5-24.98-2.83-11.41-5.78-22.77-10.82-33.64-19.02-40.99-63.5-35.14-94.09-60.76-26.8-22.45-35.21-46.89-21.97-80.43,7.16-18.14,20.74-30.14,39.96-34.97Z"
     id="path2"
     style="fill:#377ac1;fill-opacity:1" />
  <path
     class="cls-1"
     d="M248.04,239.8c48.61-25.4,97.89-49.52,145.53-76.75,73.35-41.94,144.42-87.85,216.63-131.68,63.9,22.7,120.87,63.14,166.33,113.04l-95.9,43.44c-6.14-4.76-17.69-14.49-25.43-15.04-16.78-1.2-30.12,23.17-29.51,38.02l-305.71,130.87c-14.98-32.25-43.72-80.17-71.93-101.9Z"
     id="path3"
     style="fill:#feac33;fill-opacity:1" />
  <path
     class="cls-2"
     d="M363.93,761.28c8.33,17.53,28.57,29.03,45.97,36.45,74.05,31.6,171.7,31.77,249.93,17.18,20.77-3.87,41-9.83,61.76-13.67-128.14,102.66-300.69,123.14-451.73,58.84-.81-.42-1.4-1.12-1.83-1.89-12.85-22.76-23.2-47.97-33.97-71.93,9.52-4.6,19.63-7.74,29.76-10.7,34.28-10.04,64.39-15.47,100.12-14.27Z"
     id="path4"
     style="fill:#44b7e0;fill-opacity:1" />
  <path
     class="cls-1"
     d="M268.02,101.93c16.83-13.08,34.39-25.24,51.63-37.78,22.03-16.01,43.52-33.52,65.94-48.95,3.69-2.54,14.9-10.84,18.26-11.71,5.42-1.4,20.23-2.22,26.47-2.51,41.78-1.91,93.41,3.85,133.63,15.31,2.78.79,7,1.62,9.39,2.61,1.27.52,1.75-.4,1.38,2.08l-166.83,104.92c-33.59-15.69-103.36-27.37-139.87-23.98Z"
     id="path5" />
  <path
     class="cls-1"
     d="M844.46,387.65c-13.45-74.68-53.55-129.83-120.88-163.84-5.52-2.79-9.3-8.13-13.99-11.99l91.88-36.53c3.5-.49,24.24,31.6,27.42,36.62,12.28,19.37,23.17,39.7,32.02,60.89,3.9,9.34,14.65,34.77,15.42,43.54.93,10.61-3.54,22.04-9.12,32.07-1.1,1.97-9.83,18.79-10.67,20.22-3.48,5.99-7.82,13.21-12.08,19.02Z"
     id="path6"
     style="fill:#fe8f33;fill-opacity:1" />
  <path
     class="cls-1"
     d="M83.2,444.6L1.29,475.56c-3.06-2.78.19-58.9,1-67.42,1.15-12.14,2.88-27.87,5.26-39.7.56-2.76,1.43-8.03,3.32-9.66l95.31-47.05c-9.85,43.61-18.29,88.46-22.98,132.87Z"
     id="path7"
     style="fill:#feac33;fill-opacity:1" />
  <path
     class="cls-1"
     d="M134.15,129.91c13.54-12.38,26.38-25.09,41.07-36.36,55.31-42.44,121.86-72.61,190.71-84.51-40.58,34.14-84.61,64.68-126.88,96.89-21.35,4.92-54.63,18.55-68.9,35.5-1.67,1.99-7.89,12.18-8.61,12.4-1.47.45-1.93-.12-2.89-.96-1.99-1.74-6.17-8.85-8.86-11.62-3.91-4.02-10.31-9.39-15.63-11.34Z"
     id="path8" />
  <path
     class="cls-4"
     d="M680.62,187.85c9.75,7.56,19.4,16.1,28.97,23.98,4.68,3.86,8.47,9.2,13.99,11.99,4.23,5.54,9.85,9.83,14.5,14.97,4.74,5.25,19.89,22.34,22.33,27.63,6.65,14.41-14.4,28.88-26.06,32.61-18.24,5.84-41.17,2.43-52.14-14.35-13.86-21.21-8.3-45.56-.59-67.84-16.01-1.42-30.73,1.01-46.07,4.62-1.72.4-4.5,1.02-5.87,1.37-2.84-3.43-3.82-7.58-4-11.99-.61-14.85,12.73-39.22,29.51-38.02,7.74.55,19.3,10.29,25.43,15.04ZM647.38,185c-6.31.96-14.67,21.91-9.11,23.75s5.44-6.65,6.9-9.9c1.14-2.53,9.96-15.04,2.21-13.85ZM693.32,222.98c-6.08,1.72-14.83,33.74-7.01,35.7,5.55,1.39,4.87-12.79,5.76-16.93.96-4.46,9.9-21.21,1.26-18.77Z"
     id="path9" />
  <path
     class="cls-1"
     d="M82.2,459.58c-3.38,36.8-3.81,74.95-4,111.89-12.12,2.98-23.8,9.7-34.64,15.81-2.83,1.59-15.72,10.91-17.36,9.74-2.23-1.59-14.05-46.29-15.45-52.51-3.98-17.58-6.61-35.38-8.55-53.31l80-31.62Z"
     id="path10"
     style="fill:#fe8f33;fill-opacity:1" />
  <path
     class="cls-4"
     d="M411.88,765.28c6.06,1.4,19.11,10.85,26.3,14.16,88.01,40.54,212.62,25,304.38,3.82-5.97,6.93-13.84,12.26-20.98,17.98-20.76,3.84-40.98,9.8-61.76,13.67-78.23,14.58-175.87,14.42-249.93-17.18-17.4-7.42-37.64-18.92-45.97-36.45,14.94.5,33.51.65,47.95,4Z"
     id="path11" />
  <path
     class="cls-2"
     d="M861.45,462.58c2.42-17.84.44-36.24.23-54.22,10.04-15.99,18.45-31.28,23.8-48.59.24-.77.49-3.33,2.09-1.42.9,1.08,3.21,19.41,3.71,22.96,4.11,29.46,5.9,59.56,4.14,89.26-8.61-3.02-24.78-6.61-33.97-7.99Z"
     id="path12"
     style="fill:#44b7e0;fill-opacity:1" />
  <path
     class="cls-3"
     d="M861.45,462.58c9.19,1.38,25.36,4.97,33.97,7.99,4.89,1.71,15.8,7.18,20.65,9.82,4.71,2.57,8.76,5.24,19.63,14.12-32.77-14.84-56.92,6.13-75.21,28.53-8.56,10.49-15.63,22.6-26,31.44,8.12-18.46,14.52-72.17,14.99-92.91,4.13-.46,7.98.4,11.99,1Z"
     id="path13" />
  <path
     class="cls-1"
     d="M111.17,290.75l-96.43,50.94c-2.31.91-.86-4.97-.71-5.74,1.42-7.26,4.35-14.98,6.23-22.22l90.67-38.8c7.05-.76,1.11,12.38.24,15.82Z"
     id="path14" />
  <path
     class="cls-2"
     d="M81.2,640.4c-.58-2.13-2.88.19-3.72.77-8.66,6.01-15.95,12.12-22.75,20.19l-11.23-19.72c-.72-5.82-10.7-20.21-7.32-24.78,1.04-1.41,13.13-9.92,15.52-11.45,8.47-5.41,17.24-9.19,26.5-12.96.15,3.89,2,11.65,2,15.48v14.99c0,4.29.6,12.81,1,17.48Z"
     id="path15"
     style="fill:#44b7e0;fill-opacity:1" />
  <path
     class="cls-3"
     d="M97.76,213.93c-1.08-3.46-.97-6.15-.58-8.63.2-1.26.26-2.32.36-2.48.06-.09.07-.7.65-1.67,1.47-2.46,1.65-4.34,3.94-6.85,9.33-10.26,30.07-8.36,34.23,5.82,6.29,21.39-19.32,35.61-34.74,19.75-.46-.48-3.12-3.57-3.87-5.94Z"
     id="path16"
     style="fill:#fdac33;fill-opacity:1" />
  <path
     class="cls-2"
     d="M100.18,730.31l-36.82-52.69c-.53-2.93,5.02-8.79,7.34-11.26,3.64-3.88,7.72-7.53,12.5-9.98,2.76,21.41,8.99,54.12,16.98,73.93Z"
     id="path17"
     style="fill:#44b7e0;fill-opacity:1" />
  <path
     class="cls-1"
     d="M267.02,205.83l-38.96,22.98c-7.4-3.78-14.9-7.86-22.72-10.75-4.76-1.76-13.71-1.07-13.24-7.23,24.99-1.98,50.07-1.62,74.92-5Z"
     id="path18" />
  <path
     class="cls-1"
     d="M346.94,162.87c-3.61.6-8.44,3.17-10.99,5.99-3.49-1.18-16.21-4.45-17.99-6.48-3.83-4.37-.03-9.35,6.25-8.28,7.62,1.31,15.62,6.26,22.73,8.76Z"
     id="path19" />
  <path
     class="cls-1"
     d="M315.97,178.86l-9.99,6.99c-4.42-1.56-16.08-4.14-16.08-9.49,0-10.52,21.22.77,26.07,2.5Z"
     id="path20" />
  <path
     class="cls-1"
     d="M363.93,152.88c-4.69-1.65-15.96-3.49-15.01-10.42,1.09-7.96,18.92.89,23.26,2.48.75.27.83,1.24.75,1.95l-8.99,5.99Z"
     id="path21" />
  <path
     class="cls-2"
     d="M344.95,648.39c.22,28.56,3.86,51.5,20.98,74.93-5.54,6.43-9.17,13.33-6.99,21.98-41.11-.31-79.3,7.95-117.66,21.71-4.22,1.52-10.31,3.03-13.22,6.27-19.95-46.07-40.28-97.27-52.95-145.86,57.55-4.78,113.07,15.38,169.84,20.98Z"
     id="path22"
     style="fill:#44b7e0;fill-opacity:1" />
  <path
     class="cls-2"
     d="M381.91,564.48c-17.42,17.76-31.44,43.92-35.97,68.93-41-3.12-81.77-16.98-122.39-20.97-17.66-1.73-34.79-.74-52.44,0-3.44-14.18-6.02-28.67-8.99-42.96,13.91-3.2,28.23-5.5,42.47-6.98,42.57-4.42,77.09.27,118.83,2.02,19.42.81,38.69,3.37,58.48-.04Z"
     id="path23"
     style="fill:#44b7e0;fill-opacity:1" />
  <path
     class="cls-3"
     d="M525.77,623.42c-5.18-2.56-10.73-4.33-15.48-7.99-25.36-19.55-4.13-52.4-9.96-77.95-2.47-10.8-9.05-17.37-19.19-21.78-8.36-3.64-27.15,2.01-35.8,4.42,8.68-4.15,20.55-10.05,26.81-12.76,6.71-2.91,28.85-12.42,34.93-10.62,4.02,1.19,8.29,9.75,9.26,13.73,8.9,36.69-26.23,83.18,9.44,112.94Z"
     id="path24" />
  <path
     class="cls-4"
     d="M386.9,747.3c-9.03-.66-18.98-1.93-27.97-2-2.18-8.65,1.45-15.55,6.99-21.98,4.6,6.3,15.12,18.92,20.98,23.98Z"
     id="path25" />
  <path
     class="cls-1"
     d="M589.71,257.78c-13.25,33.54-4.83,57.98,21.97,80.43,30.59,25.62,75.08,19.76,94.09,60.76,5.04,10.86,7.99,22.22,10.82,33.64l-104.9,15.98c-38.33-45.62-130.49-35.42-159.67,16.66-7.59,13.55-7.58,33.45-27.7,34.3-20.96.89-23.61-15.73-32.59-28.31-7.6-10.64-21.37-5.17-27.64,3.99-12.78,18.68-4.18,47.84,8.83,64.27-4.37,1.07-8.95.9-12.6,1.13-1.7.11-5.33-.26-9.19-.15-6.45.18-10.86.12-16.64-.02-47.13-1.14-90.28-4.21-137.78,1.17-13.3,1.51-26.5,4.26-39.59,6.86-7.19-37.39-12.71-75.73-13.99-113.89l141.86-54.95c.62,2.25,1.28,7.17,2.3,8.69,2.51,3.75,16.34,11.18,20.19,15.26-1.82-10.3-3.91-20.59-5.51-30.95l7.99-3c.11.34,1.34,1.17,1.74,2.71,3.39,12.87,4.12,27.63,8.19,40.56,5.74,2.08,13.8,12.05,18.33,13.95,3.97,1.66,5.93.34,5.7-3.69-.93-16.95-8.92-45.39-14.98-61.52l260.75-103.9Z"
     id="path26"
     style="fill:#fe8f33;fill-opacity:1" />
  <path
     class="cls-3"
     d="M721.58,457.58c5.88,44.52-3.99,87.01-56.46,90.89-20.13,1.49-34.71-2.04-36.48-24.43s3.46-33.54-5.96-56.48c17.45-1.99,34.97-5.32,52.46-6.98,15.45-1.47,31.03-1.01,46.45-3.01Z"
     id="path27" />
  <path
     class="cls-1"
     d="M143.14,418.62c-.09-36.51.82-82.45,7.11-118.27,2.38-13.54,10.53-4.76,18.2.55,23.97,16.61,45.69,36.7,70.12,52.77,2.18.41,1.51-.89,1.39-2.39-.72-9.05-7.14-24.65-6.58-32.94.31-4.62,5.19-7.95,8.68-4.14,2.98,3.25,6.93,39.53,9.65,46.29.85,2.29,4.51,6.57,6.32,8.17l-114.89,49.95Z"
     id="path28"
     style="fill:#feac33;fill-opacity:1" />
  <path
     class="cls-3"
     d="M158.94,215.05c33.87-2.2,34.09,49.22.69,49.51s-30.85-47.55-.69-49.51Z"
     id="path29"
     style="fill:#fdac33;fill-opacity:1" />
  <path
     class="cls-3"
     d="M149.86,165.11c22.27-4.62,30.18,24.03,13.61,33.58-13.66,7.88-29.82-2.47-27.25-18.27.85-5.23,8.31-14.21,13.64-15.31Z"
     id="path30"
     style="fill:#fdac33;fill-opacity:1" />
  <path
     class="cls-1"
     d="M281.01,359.68l-8.99,3c-1.01-5.2-5.48-21.97-3.5-25.98,1.12-2.27,4.38-2.54,6.5-1.5,4.42,2.17,5.07,19.39,5.99,24.48Z"
     id="path31" />
  <path
     class="cls-4"
     d="M407.88,125.91c1.3.61,9.96,5.9,9.97,6.49l-22,20.01c-3.99,1.79-17.59-6.16-22.94-5.53.09-.71,0-1.68-.75-1.95-4.34-1.59-22.17-10.44-23.26-2.48-.95,6.93,10.32,8.77,15.01,10.42,2.44.86,21.02,6.09,20.96,7.49-4.06,2.11-10.42,8.39-14.27,9.74-2.02.71-19.95-5.93-23.67-7.24-7.11-2.51-15.11-7.46-22.73-8.76-6.28-1.08-10.08,3.91-6.25,8.28,1.78,2.03,14.5,5.3,17.99,6.48,5.89,1.99,15.61,3.96,20.71,6.76.91.5,2.65.75,1.27,2.22-.78.84-19.72,8.03-21.48,8.03-4.6,0-15.58-5.27-20.48-7.01s-26.07-13.01-26.07-2.5c0,5.35,11.66,7.93,16.08,9.49s11.79,1.76,14.98,5.98c-17.82,6.96-34.93,11.41-53.95,14-24.85,3.38-49.93,3.02-74.92,5-.47,6.16,8.48,5.47,13.24,7.23,7.82,2.89,15.32,6.97,22.72,10.75,6.74,3.44,13.88,6.29,19.98,10.99,28.21,21.73,56.95,69.65,71.93,101.9,3.05,6.56,6.45,13.21,8.99,19.98,6.07,16.13,14.06,44.57,14.98,61.52.22,4.04-1.73,5.35-5.7,3.69-4.54-1.9-12.59-11.88-18.33-13.95-4.07-12.93-4.8-27.69-8.19-40.56-.41-1.54-1.63-2.36-1.74-2.71-1.09-3.4-.38-11.27-7.32-8.85-4.65,1.62-1.15,8.76-.67,11.85,1.59,10.36,3.68,20.64,5.51,30.95-3.85-4.08-17.68-11.52-20.19-15.26-1.02-1.52-1.68-6.44-2.3-8.69-1.83-6.61-2.78-13.25-4-19.98-.92-5.1-1.57-22.32-5.99-24.48-2.12-1.04-5.37-.77-6.5,1.5-1.98,4.01,2.49,20.78,3.5,25.98,1.09,5.63,2.61,11.22,2.99,16.98-4.96-3.48-12.58-7.1-16.97-10.99-1.81-1.6-5.47-5.88-6.32-8.17-2.71-6.76-6.67-43.04-9.65-46.29-3.49-3.81-8.37-.48-8.68,4.14-.56,8.29,5.86,23.89,6.58,32.94.12,1.49.78,2.8-1.39,2.39-24.43-16.07-46.15-36.15-70.12-52.77-7.66-5.31-15.82-14.09-18.2-.55-6.29,35.81-7.2,81.76-7.11,118.27.01,5.3-.18,10.69,0,15.98,1.28,38.15,6.8,76.5,13.99,113.89,1.35,7,3.54,14,5,20.98,2.98,14.29,5.55,28.77,8.99,42.96,1.21,4.97,2.7,10.01,4,14.99,12.67,48.59,33,99.79,52.95,145.86,1.91,4.42,4.04,8.65,5.99,12.99,10.77,23.96,21.11,49.17,33.97,71.93-37.89-13.81-71.17-35.86-102.37-60.97-9.46-7.62-20.86-17.04-29.53-25.42-7.08-6.83-32.99-34.19-35.94-41.49-8-19.81-14.22-52.52-16.98-73.93-.68-5.27-1.55-10.7-2-15.98-.4-4.67-1-13.19-1-17.48l-1.06-15.62c0-3.84-.78-10.95-.93-14.85-.27-6.93-.04-14.03,0-20.98.19-36.94.61-75.09,4-111.89.45-4.92.48-10.06,1-14.99,4.69-44.41,13.13-89.26,22.98-132.87,1.59-7.05,3.23-13.98,5-20.98.86-3.44,6.81-16.58-.24-15.82l-90.67,38.8c6.9-26.66,14.48-48.51,27.45-72.95,2.42-4.57,9.74-18.01,13.08-20.88,5.61-4.82,29.03-5.74,36.97-5.96.89,2.74,3.4,5.46,3.87,5.94,15.42,15.86,41.02,1.64,34.74-19.75-4.17-14.18-24.91-16.08-34.23-5.82-2.28,2.51-2.47,4.39-3.94,6.85-.58.97-1.96.6-2.01.69-3.47-1.09-16.36-5.02-15.48-9.08,1.16-5.4,13.49-21.21,17.51-26.36,11.27-14.44,23.16-24.82,35.94-36.49,5.32,1.95,11.72,7.32,15.63,11.34,2.7,2.77,6.87,9.88,8.86,11.62.96.84,1.42,1.42,2.89.96.72-.22,6.94-10.41,8.61-12.4,14.27-16.95,47.56-30.57,68.9-35.5,8.24-1.9,20.38-3.2,28.97-4,36.5-3.39,106.28,8.29,139.87,23.98ZM149.86,165.11c-5.34,1.11-12.79,10.08-13.64,15.31-2.57,15.8,13.59,26.15,27.25,18.27,16.57-9.56,8.66-38.2-13.61-33.58ZM158.94,215.05c-30.16,1.96-33.35,49.8.69,49.51s33.18-51.7-.69-49.51Z"
     id="path32" />
</svg>
